<svg id="textblock" xmlns="http://www.w3.org/2000/svg" viewBox="0 0 999.7 620.1"><defs><style>.cls-1{fill:#0f6;}.cls-2{fill:#fff;}</style></defs><title>logo-white--no-background</title><g id="tight-bounds"><path class="cls-1" d="M.25,581V0H1000v516.1h-29.9V30H30.15v521.1h276.3V581Z" transform="translate(-0.25 0.05)"/><path class="cls-1" d="M429.65,602.85h0a23.08,23.08,0,0,0,9.1-1.7,18.11,18.11,0,0,0,6.3-4.5,21.26,21.26,0,0,0,4.1-6.4,41,41,0,0,0,2.3-7.3h0l.6-2.6h18.8l-.6,2.6a66.91,66.91,0,0,1-5.4,16.2,36.39,36.39,0,0,1-8.7,11.5,35.54,35.54,0,0,1-12.5,7,54.71,54.71,0,0,1-17.1,2.4h0a36.89,36.89,0,0,1-12.3-2,27.44,27.44,0,0,1-9.6-5.8,26.59,26.59,0,0,1-6.2-9.4,33,33,0,0,1-2.2-12.6h0a43.61,43.61,0,0,1,.3-5.1,50.6,50.6,0,0,1,1-5.8h0l4.7-22.2c2.9-13.8,8.2-24,15.7-30.7s17.3-10,29.4-10h0a34.35,34.35,0,0,1,12.8,2.3,30,30,0,0,1,9.6,6.2,27.15,27.15,0,0,1,6,9.2,30.27,30.27,0,0,1,2.1,11.3h0a26.93,26.93,0,0,1-.3,4c-.2,1.3-.4,2.7-.7,4.1h0l-.6,2.6h-18.8l.6-2.6a26.14,26.14,0,0,0,.9-6.6h0a14.74,14.74,0,0,0-3.2-9.5c-2.1-2.6-5.9-3.9-11.2-3.9h0a20.38,20.38,0,0,0-8.6,1.8,21.6,21.6,0,0,0-6.7,4.8,29.54,29.54,0,0,0-4.8,7.1,37.11,37.11,0,0,0-2.9,8.5h0l-5.3,25.1c-.3,1.4-.5,2.8-.7,4.2a27.69,27.69,0,0,0-.3,3.9h0c0,4.3,1.1,7.7,3.4,10.3,2,2.3,5.8,3.5,11,3.6Zm124.5-19.4-7.4,34.5h-19.1l6.4-29.9a12,12,0,0,0,.3-2.3h0a5,5,0,0,0-1.6-3.9,6.74,6.74,0,0,0-4.8-1.5h-20.7l-8,37.6h-18.7l21.1-99.8h35.1a35.33,35.33,0,0,1,12.3,1.9,27.3,27.3,0,0,1,9,5.2,20.37,20.37,0,0,1,5.4,7.6,24.08,24.08,0,0,1,1.8,9.3h0c0,6.9-1.6,12.6-4.8,16.9s-8.1,7.6-14.6,9.8h0v2.6a9.84,9.84,0,0,1,6.4,2.9,9.23,9.23,0,0,1,2.2,6.4h0a13.9,13.9,0,0,1-.3,2.7Zm-37.5-47.4-5.6,26.2h17.1c5,0,9.2-1.3,12.4-4a13.42,13.42,0,0,0,4.8-10.8h0c0-3.6-1-6.4-2.9-8.4s-4.9-3-8.9-3h-16.9Zm53.7,81.9v-1.7l20.8-98.1h59.2v18h-44.2l-4.8,22.8H640v18h-42.5l-4.8,23.1h42.1v18Zm140.3,0-.3-21.4h-32.9l-9.1,21.4h-20.1l43.9-99.8H727l2.4,99.8Zm-3.8-90.4-21.8,51h25.1l-.7-51Zm49.7,8.5v-18h71.9v18H802l-17.4,81.8h-18.8l17.4-81.8Zm75.6,81.9v-1.7l20.8-98.1h59.2v18H868l-4.8,22.8h38.6v18h-42.5l-4.8,23.1h42.1v18Z" transform="translate(-0.25 0.05)"/><g id="textblocktransform"><path id="text-0" class="cls-2" d="M315.6,155.89v308.2H226.7l-75.6-241.9a55.48,55.48,0,0,1,.9,8.9h0c2.7,21.3,4.7,40.7,6.2,58s2.2,37.5,2.2,60.3h0v114.7H98.1V155.89h88.1l76.9,242.4a691,691,0,0,1-9.8-115.2h0V155.89Zm270.8,308.2H513l-13.8-67.2H420.9l-13.8,67.2h-72l83.2-308.2h85.4ZM460.1,207.89l-28.5,137.9h56.9Zm238-59.6c20.8,0,39,3.3,54.9,10a135.76,135.76,0,0,1,43.4,29.6h0l-32.6,37.4q-28.95-24.9-59.1-24.9h0c-11.3,0-20.2,2.8-26.7,8.5s-9.9,13.3-9.9,23.1h0c0,6.5,1.5,12,4.4,16.5s8.2,8.7,15.6,12.9,18.4,8.9,33,14.2h0q28.5,10.65,46,22.9a84.67,84.67,0,0,1,27,30.5c6.2,12.2,9.3,27.3,9.3,45.4h0q0,28.5-13.6,50.5c-9,14.6-22.1,26.1-39.1,34.4s-36.9,12.5-59.8,12.5h0q-64.5,0-107.2-43.6h0l34.7-38.7c11,9.5,22,16.8,33.1,21.8a85.29,85.29,0,0,0,35.4,7.6h0c13.6,0,24.2-3.6,31.6-10.7s11.1-16.6,11.1-28.5h0c0-11.3-3.4-20.3-10.3-27.1s-19.6-13.6-38.6-20.5h0c-30.8-11.6-52.8-24.6-65.8-39.1s-19.6-33.1-19.6-55.6h0c0-17.5,4.4-33,13.3-46.5s21.1-23.9,36.6-31.3c15.7-7.6,33.3-11.3,52.9-11.3ZM863,392.89c11.3,0,20.6,3.9,28,11.6a38.44,38.44,0,0,1,11.1,27.6h0a38.87,38.87,0,0,1-11.1,28c-7.4,7.7-16.8,11.6-28,11.6h0c-11.3,0-20.5-3.9-27.8-11.6s-10.9-17-10.9-28h0a38.44,38.44,0,0,1,11.1-27.6,36.77,36.77,0,0,1,27.6-11.6Z" transform="translate(-0.25 0.05)"/></g></g></svg>